{"title":"Killjoys.S02E05.480p.x264-mSD[mp4remuxer].mp4","uid":15444194,"size":207065500,"categoryP":"video","categoryS":"tv_shows","magnet":"?xt=urn:btih:8cdb270c13dbcd716796598de752e22aa1c6efec&amp;dn=Killjoys.S02E05.480p.x264-mSD%5Bmp4remuxer%5D.mp4&amp;tr=udp%3A%2F%2Ftracker.leechers-paradise.org%3A6969&amp;tr=udp%3A%2F%2Fzer0day.ch%3A1337&amp;tr=udp%3A%2F%2Fopen.demonii.com%3A1337&amp;tr=udp%3A%2F%2Ftracker.coppersurfer.tk%3A6969&amp;tr=udp%3A%2F%2Fexodus.desync.com%3A6969","seeders":0,"leechers":1,"uploader":"k3nd00d","files":1,"time":1469854706,"description":"MKV to MP4 remux\r\n\r\n\r\nFormat                                   : MPEG-4\r\nFormat profile                           : Base Media\r\nCodec ID                                 : isom (isom/iso2/avc1/mp41)\r\nFile size                                : 197 MiB\r\nDuration                                 : 42mn 9s\r\nOverall bit rate mode                    : Variable\r\nOverall bit rate                         : 655 Kbps\r\nWriting application                      : Lavf56.32.100\r\n\r\nVideo\r\nID                                       : 1\r\nFormat                                   : AVC\r\nFormat/Info                              : Advanced Video Codec\r\nFormat profile                           :   \r\nFormat settings, CABAC                   : Yes\r\nFormat settings, ReFrames                : 4 frames\r\nCodec ID                                 : avc1\r\nCodec ID/Info                            : Advanced Video Coding\r\nDuration                                 : 42mn 9s\r\nBit rate                                 : 520 Kbps\r\nWidth                                    : 640 pixels\r\nHeight                                   : 480 pixels\r\nDisplay aspect ratio                     : 16:9\r\nFrame rate mode                          : Variable\r\nFrame rate                               : 23.976 fps\r\nMinimum frame rate                       : 15.385 fps\r\nMaximum frame rate                       : 55.556 fps\r\nColor space                              : YUV\r\nChroma subsampling                       : 4:2:0\r\nBit depth                                : 8 bits\r\nScan type                                : Progressive\r\nBits/(Pixel*Frame)                       : 0.071\r\nStream size                              : 157 MiB (79%)\r\nWriting library                          : x264 core 148 r2694 3b70645\r\nEncoding settings                        : cabac=1 / ref=1 / deblock=1:0:0 / analyse=0x3:0x113 / me=hex / subme=2 / psy=1 / psy_rd=1.00:0.00 / mixed_ref=0 / me_range=16 / chroma_me=1 / trellis=0 / 8x8dct=1 / cqm=0 / deadzone=21,11 / fast_pskip=1 / chroma_qp_offset=0 / threads=12 / lookahead_threads=3 / sliced_threads=0 / nr=0 / decimate=1 / interlaced=0 / bluray_compat=0 / constrained_intra=0 / bframes=3 / b_pyramid=2 / b_adapt=1 / b_bias=0 / direct=1 / weightb=1 / open_gop=0 / weightp=1 / keyint=250 / keyint_min=23 / scenecut=40 / intra_refresh=0 / rc_lookahead=10 / rc=crf / mbtree=1 / crf=21.0 / qcomp=0.60 / qpmin=0 / qpmax=69 / qpstep=4 / ip_ratio=1.40 / aq=1:1.00\r\nLanguage                                 : English\r\n\r\nAudio\r\nID                                       : 2\r\nFormat                                   : AAC\r\nFormat/Info                              : Advanced Audio Codec\r\nFormat profile                           : LC\r\nCodec ID                                 : 40\r\nDuration                                 : 42mn 9s\r\nBit rate mode                            : Constant\r\nBit rate                                 : 128 Kbps\r\nChannel(s)                               : 2 channels\r\nChannel positions                        : Front: L R\r\nSampling rate                            : 48.0 KHz\r\nFrame rate                               : 46.875 fps (1024 spf)\r\nCompression mode                         : Lossy\r\nStream size                              : 38.7 MiB (20%)\r\nLanguage                                 : English\r\nDefault                                  : Yes\r\nAlternate group                          : 1\r\n\r\nText\r\nID                                       : 3\r\nFormat                                   : Timed Text\r\nMuxing mode                              : sbtl\r\nCodec ID                                 : tx3g\r\nDuration                                 : 41mn 44s\r\nBit rate mode                            : Variable\r\nBit rate                                 : 90 bps\r\nStream size                              : 27.5 KiB (0%)\r\nTitle                                    : English\r\nLanguage                                 : English\r\nDefault                                  : Yes\r\nForced                                   : No\r\nAlternate group                          : 3","torrent":{"xt":"urn:btih:8cdb270c13dbcd716796598de752e22aa1c6efec","amp;dn":"Killjoys.S02E05.480p.x264-mSD%5Bmp4remuxer%5D.mp4","amp;tr":["udp%3A%2F%2Ftracker.leechers-paradise.org%3A6969","udp%3A%2F%2Fzer0day.ch%3A1337","udp%3A%2F%2Fopen.demonii.com%3A1337","udp%3A%2F%2Ftracker.coppersurfer.tk%3A6969","udp%3A%2F%2Fexodus.desync.com%3A6969"],"infoHash":"8cdb270c13dbcd716796598de752e22aa1c6efec","infoHashBuffer":{"type":"Buffer","data":[140,219,39,12,19,219,205,113,103,150,89,141,231,82,226,42,161,198,239,236]},"announce":[],"urlList":[]}}